# AST/ASF file generated using VICON BodyLanguage
# -----------------------------------------------
:version 1.10
:name VICON
:units
  mass 1.0
  length 0.45
  angle deg
:documentation
   .ast/.asf automatically generated from VICON data using
   VICON BodyBuilder and BodyLanguage model FoxedUp or BRILLIANT.MOD
:root
   order TX TY TZ RX RY RZ
   axis XYZ
   position 0 0 0  
   orientation 0 0 0 
:bonedata
  begin
     id 1 
     name lhipjoint
     direction 0.612567 -0.751349 0.245431 
     length 2.42285 
     axis 0 0 0  XYZ
  end
  begin
     id 2 
     name lfemur
     direction 0.34202 -0.939693 0  
     length 7.11304  
     axis 0 0 20  XYZ
    dof rx ry rz
    limits (-160.0 20.0)
           (-70.0 70.0)
           (-60.0 70.0)
  end
  begin
     id 3 
     name ltibia
     direction 0.34202 -0.939693 0   
     length 7.84529   
     axis 0 0 20   XYZ
    dof rx
    limits (-10.0 170.0)
  end
  begin
     id 4 
     name lfoot
     direction 0.0779239 -0.214094 0.9737   
     length 1.97176   
     axis -90 7.62852e-016 20   XYZ
    dof rx rz
    limits (-45.0 90.0)
           (-70.0 20.0)
  end
  begin
     id 5 
     name ltoes
     direction 1.53565e-011 -4.21709e-011 1   
     length 0.993197   
     axis -90 7.62852e-016 20   XYZ
    dof rx
    limits (-90.0 20.0)
  end
  begin
     id 6 
     name rhipjoint
     direction -0.665722 -0.709315 0.231701   
     length 2.56642  
     axis 0 0 0  XYZ 
  end
  begin
     id 7 
     name rfemur
     direction -0.34202 -0.939693 0   
     length 7.32108   
     axis 0 0 -20   XYZ
    dof rx ry rz
    limits (-160.0 20.0)
           (-70.0 70.0)
           (-70.0 60.0)
  end
  begin
     id 8 
     name rtibia
     direction -0.34202 -0.939693 0   
     length 7.81254   
     axis 0 0 -20   XYZ
    dof rx
    limits (-10.0 170.0)
 end
 begin
     id 9 
     name rfoot
     direction -0.0832806 -0.228812 0.969902   
     length 2.08278  
     axis -90 -7.62852e-016 -20   XYZ
    dof rx rz
    limits (-45.0 90.0)
           (-20.0 70.0)
  end
  begin
     id 10 
     name rtoes
     direction -1.53589e-011 -4.22086e-011 1   
     length 1.04609   
     axis -90 -7.62852e-016 -20   XYZ
    dof rx
    limits (-90.0 20.0)
  end
  begin
     id 11 
     name lowerback
     direction -0.00506013 0.988403 -0.151766   
     length 2.01978   
     axis 0 0 0   XYZ
    dof rx ry rz
    limits (-20.0 45.0)
           (-30.0 30.0)
           (-30.0 30.0)
  end
  begin
     id 12 
     name upperback
     direction -0.00836389 0.99968 0.0238859   
     length 2.01276   
     axis 0 0 0   XYZ
    dof rx ry rz
    limits (-20.0 45.0)
           (-30.0 30.0)
           (-30.0 30.0)
  end
  begin
     id 13 
     name thorax
     direction -0.00684136 0.995386 0.0957043   
     length 2.07303   
     axis 0 0 0   XYZ
    dof rx ry rz
    limits (-20.0 45.0)
           (-30.0 30.0)
           (-30.0 30.0)
  end
  begin
     id 14 
     name lowerneck
     direction -0.0161045 0.999661 0.0204485   
     length 1.91243   
     axis 0 0 0   XYZ
    dof rx ry rz
    limits (-20.0 45.0)
           (-30.0 30.0)
           (-30.0 30.0)
  end
  begin
     id 15 
     name upperneck
     direction 0.0553583 0.990946 -0.122319   
     length 1.91574   
     axis 0 0 0   XYZ
    dof rx ry rz
    limits (-20.0 45.0)
           (-30.0 30.0)
           (-30.0 30.0)
  end
  begin
     id 16
     name head
     direction 0.0180273 0.998839 -0.0446756  
     length 1.92693  
     axis 0 0 0   XYZ
    dof rx ry rz
    limits (-20.0 45.0)
           (-30.0 30.0)
           (-30.0 30.0)
  end
  begin
     id 17 
     name lclavicle
     direction 0.945646 0.319323 -0.0615358  
     length 4.0076  
     axis 0 0 0   XYZ
    dof ry rz
    limits (-20.0 10.0)
           (0.0 20.0)
  end
  begin
     id 18 
     name lhumerus
     direction 1 -4.48967e-011 -2.79996e-027   
     length 5.64147   
     axis 180 -30 -90   XYZ
    dof rx ry rz
    limits (-60.0 90.0)
           (-90.0 90.0)
           (-90.0 90.0)
  end
  begin
     id 19
     name lradius
     direction 1 -4.48976e-011 -9.5122e-027   
     length 2.86444   
     axis 180 -30 -90   XYZ
    dof rx
    limits (-10.0 170.0)
  end
  begin
     id 20
     name lwrist
     direction 1 -4.48983e-011 -1.24047e-026   
     length 1.43222   
     axis 9.05591e-015 90 90   XYZ
    dof ry
    limits (-180.0 0.0)
 end
  begin
     id 21 
     name lhand
     direction 1 -4.4892e-011 -2.48094e-026   
     length 0.722123   
     axis 1.58305e-014 90 90   XYZ
    dof rx rz
    limits (-90.0 90.0)
           (-45.0 45.0)
  end
  begin
     id 22 
     name lfingers
     direction 1 -4.48895e-011 -4.96187e-026   
     length 0.582194   
     axis 3.1661e-014 90 90   XYZ
    dof rx
    limits (0.0 90.0)
  end
  begin
     id 23
     name lthumb
     direction 0.707107 -6.34961e-011 0.707107   
     length 0.835918   
     axis -90 45 2.85299e-015   XYZ
    dof rx rz
    limits (-45.0 45.0)
           (-45.0 45.0)
  end
  begin
     id 24 
     name rclavicle
     direction -0.932635 0.324218 -0.15835   
     length 3.65819  
     axis 0 0 0   XYZ 
    dof ry rz
    limits (-10.0 20.0)
           (-20.0 0.0)
  end
  begin
     id 25 
     name rhumerus
     direction -1 -4.48965e-011 -4.02296e-027  
     length 5.44729   
     axis 180 30 90   XYZ
    dof rx ry rz
    limits (-90.0 60.0)
           (-90.0 90.0)
           (-90.0 90.0)
  end
  begin
     id 26 
     name rradius
     direction -1 -4.48957e-011 -8.81087e-027   
     length 3.08821   
     axis 180 30 90   XYZ
    dof rx
    limits (-10.0 170.0)
  end
  begin
     id 27 
     name rwrist
     direction -1 -4.49015e-011 -1.24047e-026   
     length 1.5441   
     axis 9.05591e-015 -90 -90   XYZ
    dof ry
    limits (-180.0 0.0)
  end
  begin
     id 28
     name rhand
     direction -1 -4.4891e-011 -2.48094e-026   
     length 0.821049   
     axis 1.58305e-014 -90 -90   XYZ
    dof rx rz
    limits (-90.0 90.0)
           (-45.0 45.0)
  end
  begin
     id 29
     name rfingers
     direction -1 -4.48985e-011 -4.96187e-026   
     length 0.661951   
     axis 3.1661e-014 -90 -90   XYZ
    dof rx
    limits (0.0 90.0)
  end
  begin
     id 30
     name rthumb
     direction -0.707107 -6.34906e-011 0.707107   
     length 0.950433   
     axis -90 -45 -2.85299e-015   XYZ
    dof rx rz
    limits (-45.0 45.0)
           (-45.0 45.0)
  end
:hierarchy
  begin
    root lhipjoint rhipjoint lowerback
    lhipjoint lfemur
    lfemur ltibia
    ltibia lfoot
    lfoot ltoes
    rhipjoint rfemur
    rfemur rtibia
    rtibia rfoot
    rfoot rtoes
    lowerback upperback
    upperback thorax
    thorax lowerneck lclavicle rclavicle
    lowerneck upperneck
    upperneck head
    lclavicle lhumerus
    lhumerus lradius
    lradius lwrist
    lwrist lhand lthumb
    lhand lfingers
    rclavicle rhumerus
    rhumerus rradius
    rradius rwrist
    rwrist rhand rthumb
    rhand rfingers
  end

#!OML:ASF F:\VICON\USERDATA\INSTALL\rory3\rory3.ASF
:FULLY-SPECIFIED
:DEGREES
539
root 3.35197 17.6898 0.204728 147.116 90.292 149.279
lowerback 7.18646 -0.0416647 2.34337
upperback 0.397747 0.112899 -0.964902
thorax -3.61355 0.0167119 -2.3281
lowerneck -4.12042 -4.85664 -4.99873
upperneck 4.55582 -6.59815 8.011
head 2.70478 -3.14098 3.27935
rclavicle 7.3923e-016 -6.36111e-015
rhumerus -36.2916 -14.2226 -79.3659
rradius 19.829
rwrist 9.1998
rhand -6.50584 8.67202
rfingers 7.12502
rthumb 19.346 -20.3856
lclavicle 7.3923e-016 -6.36111e-015
lhumerus -33.9041 -4.60044 87.577
lradius 18.5107
lwrist 40.8799
lhand -14.3506 6.36001
lfingers 7.12502
lthumb 11.791 36.0081
rfemur 2.44841 0.701061 19.0365
rtibia 15.0732
rfoot -18.4447 -7.12636
rtoes -8.65784
lfemur 3.44871 0.704082 -16.1289
ltibia 8.40302
lfoot -9.94957 -0.301716
ltoes -5.23822
540
root 3.35158 17.6892 0.204989 136.046 90.3178 138.192
lowerback 7.15893 -0.0487809 2.40593
upperback 0.387642 0.108285 -0.94755
thorax -3.6088 0.0133537 -2.34479
lowerneck -4.07255 -4.85674 -5.00231
upperneck 4.51794 -6.5979 8.02049
head 2.68366 -3.14215 3.28418
rclavicle 4.84538e-016 -1.78906e-015
rhumerus -36.2916 -14.0856 -79.4621
rradius 19.9713
rwrist 8.86328
rhand -6.42413 8.16329
rfingers 7.12502
rthumb 19.4246 -20.8865
lclavicle 4.84538e-016 -1.78906e-015
lhumerus -33.9567 -4.50926 87.5455
lradius 18.5475
lwrist 40.8178
lhand -14.358 6.24139
lfingers 7.12502
lthumb 11.7839 35.8899
rfemur 2.4289 0.685638 19.1065
rtibia 15.0747
rfoot -18.42 -7.13828
rtoes -8.66979
lfemur 3.43488 0.686082 -16.0594
ltibia 8.3722
lfoot -9.85157 -0.334661
ltoes -4.67855
541
root 3.35253 17.6898 0.205664 132.671 90.3451 134.834
lowerback 7.15168 -0.0405422 2.43262
upperback 0.396198 0.121835 -0.931796
thorax -3.59506 0.0200833 -2.34478
lowerneck -4.08163 -4.86211 -5.01196
upperneck 4.50469 -6.60325 8.01245
head 2.68132 -3.14529 3.28275
rclavicle -1.41013e-015 -4.17448e-015
rhumerus -36.2896 -14.0115 -79.4909
rradius 20.0338
rwrist 8.62315
rhand -6.33987 8.00026
rfingers 7.12502
rthumb 19.5056 -21.0413
lclavicle -1.41013e-015 -4.17448e-015
lhumerus -34.0354 -4.66384 87.6499
lradius 18.6878
lwrist 41.0353
lhand -14.5068 6.1352
lfingers 7.12502
lthumb 11.6404 35.7919
rfemur 2.47586 0.660983 19.1399
rtibia 15.0252
rfoot -18.4086 -7.13608
rtoes -8.37698
lfemur 3.41779 0.687206 -16.0171
ltibia 8.44108
lfoot -9.85502 -0.359195
ltoes -4.61158
542
root 3.35259 17.6908 0.20591 131.04 90.3825 133.211
lowerback 7.15967 -0.0350654 2.46478
upperback 0.385419 0.131938 -0.929058
thorax -3.61008 0.0241919 -2.36118
lowerneck -4.06942 -4.84973 -5.00731
upperneck 4.49744 -6.58793 8.03642
head 2.67646 -3.13714 3.2912
rclavicle -5.59082e-016 -9.93923e-016
rhumerus -36.3108 -13.9607 -79.5157
rradius 20.0002
rwrist 8.56852
rhand -6.37845 8.05882
rfingers 7.12502
rthumb 19.4685 -20.9865
lclavicle -5.59082e-016 -9.93923e-016
lhumerus -34.0547 -4.65997 87.6404
lradius 18.6687
lwrist 41.0802
lhand -14.5529 5.94592
lfingers 7.12502
lthumb 11.5959 35.6051
rfemur 2.49684 0.729475 19.1864
rtibia 15.0069
rfoot -18.4254 -7.16009
rtoes -8.39451
lfemur 3.42613 0.701358 -15.9793
ltibia 8.46055
lfoot -9.8995 -0.344664
ltoes -5.06662
543
root 3.35155 17.6919 0.204783 132.1 90.34 134.27
lowerback 7.16574 -0.0442589 2.43416
upperback 0.371882 0.116765 -0.943788
thorax -3.62844 0.0165744 -2.35776
lowerneck -4.05899 -4.82753 -5.00363
upperneck 4.51046 -6.55999 8.05247
head 2.67747 -3.12266 3.29766
rclavicle -1.30452e-015 -2.78299e-015
rhumerus -36.3487 -13.9415 -79.525
rradius 20.0049
rwrist 8.54908
rhand -6.33962 8.0353
rfingers 7.12502
rthumb 19.5059 -21.0063
lclavicle -1.30452e-015 -2.78299e-015
lhumerus -34.0708 -4.70412 87.6578
lradius 18.6205
lwrist 41.1448
lhand -14.6142 5.95401
lfingers 7.12502
lthumb 11.5368 35.6165
rfemur 2.51067 0.746262 19.1409
rtibia 14.9992
rfoot -18.4379 -7.15678
rtoes -8.28783
lfemur 3.42833 0.676135 -16.0243
ltibia 8.44846
lfoot -9.89087 -0.352809
ltoes -4.97143
544
root 3.35058 17.6915 0.204777 131.602 90.3364 133.772
lowerback 7.17424 -0.0452982 2.43936
upperback 0.370241 0.116119 -0.940643
thorax -3.63494 0.016074 -2.35741
lowerneck -4.07259 -4.8155 -5.04404
upperneck 4.5009 -6.54207 8.0802
head 2.67874 -3.11364 3.31561
rclavicle -1.27968e-015 0
rhumerus -36.3632 -13.8691 -79.5581
rradius 20.0644
rwrist 8.43086
rhand -6.25851 7.94061
rfingers 7.12502
rthumb 19.5838 -21.093
lclavicle -1.27968e-015 0
lhumerus -34.1127 -4.83255 87.7416
lradius 18.6545
lwrist 41.2912
lhand -14.6969 6.18966
lfingers 7.12502
lthumb 11.457 35.8566
rfemur 2.51303 0.688313 19.1298
rtibia 14.9891
rfoot -18.4255 -7.11569
rtoes -8.33119
lfemur 3.42827 0.669128 -16.0261
ltibia 8.43193
lfoot -9.86305 -0.324226
ltoes -5.13684
